#!OML:ASF F:\VICON\USERDATA\INSTALL\SteveWalk\SteveWalk.ASF
:FULLY-SPECIFIED
:DEGREES
333
root 0.191677 15.798 28.5072 17.369 10.695 2.86383
lowerback -15.3715 -3.0475 -3.86294
upperback -4.27595 -3.4495 0.749957
thorax 4.33122 -1.7163 2.31804
lowerneck -4.37563 -2.92961 -2.40715
upperneck 13.0672 -4.05036 2.41249
head 4.73342 -1.96222 0.918922
rclavicle 4.13721e-015 8.74653e-015
rhumerus -83.9521 -37.2014 -17.4306
rradius 10.5054
rwrist 43.9609
rhand -15.6801 -34.7862
rfingers 7.12502
rthumb 10.5088 -64.5035
lclavicle 4.13721e-015 8.74653e-015
lhumerus -18.7073 -12.7149 83.2272
lradius 60.1378
lwrist 8.45738
lhand -24.6106 -22.3253
lfingers 7.12502
lthumb 1.88765 7.64608
rfemur -49.6803 -7.71205 23.4188
rtibia 23.5409
rfoot -9.98857 0.313307
rtoes -28.1776
lfemur 2.17871 -0.37727 -21.4722
ltibia 21.2926
lfoot -16.4366 -14.8935
ltoes -23.2928
334
root 0.190642 15.8021 28.7649 17.3508 10.5405 2.98245
lowerback -15.443 -3.04571 -3.77868
upperback -4.30692 -3.45979 0.794379
thorax 4.33573 -1.72056 2.31316
lowerneck -4.91902 -2.89965 -2.50174
upperneck 13.5108 -3.97108 2.19806
head 4.95762 -1.93488 0.861798
rclavicle 3.06253e-014 -4.96962e-015
rhumerus -84.7211 -37.3951 -15.6376
rradius 10.274
rwrist 45.8834
rhand -16.0457 -34.6511
rfingers 7.12502
rthumb 10.1561 -64.3859
lclavicle 3.06253e-014 -4.96962e-015
lhumerus -19.5704 -12.3211 83.2902
lradius 60.9932
lwrist 8.45721
lhand -24.5644 -22.4725
lfingers 7.12502
lthumb 1.93228 7.49845
rfemur -49.774 -7.1733 22.9544
rtibia 25.1398
rfoot -7.87684 0.398682
rtoes -27.1265
lfemur 2.15375 -0.667945 -21.4419
ltibia 22.802
lfoot -14.6663 -15.6096
ltoes -22.8984
335
root 0.211491 15.8046 29.0107 17.5671 10.3299 2.48951
lowerback -15.8002 -2.84002 -2.67828
upperback -4.40507 -3.35214 0.879208
thorax 4.36229 -1.6604 1.79183
lowerneck -5.1817 -2.80333 -2.4525
upperneck 13.6 -3.81001 1.96343
head 5.02038 -1.86591 0.78646
rclavicle -6.1499e-016 -1.41137e-014
rhumerus -86.2089 -37.8244 -12.7845
rradius 10.0718
rwrist 48.5579
rhand -16.1523 -34.4035
rfingers 7.12502
rthumb 10.0532 -64.1434
lclavicle -6.1499e-016 -1.41137e-014
lhumerus -20.2805 -11.9194 83.3333
lradius 61.548
lwrist 8.5492
lhand -24.7228 -22.4933
lfingers 7.12502
lthumb 1.77929 7.47902
rfemur -50.2443 -6.9228 23.2917
rtibia 26.5047
rfoot -5.93685 1.5487
rtoes -22.1604
lfemur 1.43608 -0.884418 -20.9569
ltibia 24.9203
lfoot -12.8196 -16.0485
ltoes -22.038
336
root 0.217481 15.7992 29.2577 17.6868 10.0024 1.69826
lowerback -16.0252 -2.58074 -1.57065
upperback -4.5281 -3.19289 1.10835
thorax 4.29997 -1.57484 1.43476
lowerneck -5.24033 -2.66481 -2.23476
upperneck 13.5008 -3.58383 1.53464
head 4.9829 -1.77082 0.631793
rclavicle -3.2551e-015 2.3059e-014
rhumerus -86.7488 -38.0749 -11.5191
rradius 10.034
rwrist 50.0333
rhand -15.566 -34.9835
rfingers 7.12502
rthumb 10.6188 -64.6952
lclavicle -3.2551e-015 2.3059e-014
lhumerus -21.1274 -11.5082 83.4559
lradius 61.9701
lwrist 8.68493
lhand -24.7776 -22.7981
lfingers 7.12502
lthumb 1.7264 7.17464
rfemur -50.5685 -5.88162 23.5289
rtibia 27.9059
rfoot -3.94029 1.67956
rtoes -9.26322
lfemur 0.44551 -0.809653 -20.1123
ltibia 27.4795
lfoot -8.56258 -16.9794
ltoes -15.7213
337
root 0.209539 15.7798 29.5028 17.8758 9.29179 1.3554
lowerback -16.2592 -2.34344 -1.2309
upperback -4.58519 -2.94229 1.30219
thorax 4.34876 -1.44941 1.4898
lowerneck -5.42153 -2.55541 -2.12034
upperneck 13.3208 -3.38381 1.10393
head 4.94498 -1.69315 0.490661
rclavicle 3.83779e-014 -1.39149e-014
rhumerus -87.2715 -38.5218 -10.0381
rradius 10.0069
rwrist 51.9465
rhand -15.0888 -35.5649
rfingers 7.12502
rthumb 11.0791 -65.2524
lclavicle 3.83779e-014 -1.39149e-014
lhumerus -22.0545 -10.911 83.6694
lradius 62.462
lwrist 8.53545
lhand -24.9603 -23.0772
lfingers 7.12502
lthumb 1.54993 6.89687
rfemur -50.7963 -4.38251 23.19
rtibia 29.1913
rfoot -3.14796 1.13848
rtoes -8.65878
lfemur -0.896215 -0.310455 -19.7746
ltibia 30.5771
lfoot -6.11149 -17.5443
ltoes -16.7149
338
root 0.212243 15.7663 29.7341 18.0368 8.66121 1.55329
lowerback -16.2489 -2.16647 -1.1952
upperback -4.66221 -2.7132 1.26682
thorax 4.24961 -1.33565 1.48003
lowerneck -5.35754 -2.46509 -2.27031
upperneck 13.0337 -3.24076 1.0755
head 4.84544 -1.63229 0.517484
rclavicle -4.4565e-014 1.59028e-015
rhumerus -87.011 -38.8439 -9.96476
rradius 9.91645
rwrist 52.5668
rhand -15.6903 -35.3627
rfingers 7.12502
rthumb 10.4989 -65.0805
lclavicle -4.4565e-014 1.59028e-015
lhumerus -23.1672 -10.3482 83.8526
lradius 62.9211
lwrist 8.47628
lhand -25.0158 -23.2738
lfingers 7.12502
lthumb 1.49629 6.70073
rfemur -50.9888 -3.50898 22.6078
rtibia 30.5845
rfoot -3.48123 1.00994
rtoes -19.2742
lfemur -2.40691 0.0102324 -20.0674
ltibia 33.8971
lfoot -2.71 -17.9132
ltoes -14.4841
339
root 0.230144 15.7762 29.9579 17.8124 8.66281 0.962765
lowerback -15.8285 -2.02143 -0.0719138
upperback -4.74135 -2.70849 1.41907
thorax 3.89819 -1.32992 1.02236
lowerneck -5.03193 -2.29265 -2.24524
upperneck 12.6018 -2.98753 0.870192
head 4.64997 -1.51992 0.471435
rclavicle 1.97294e-014 -5.1684e-015
rhumerus -86.6933 -39.0656 -10.018
rradius 9.94726
rwrist 53.2089
rhand -15.9367 -35.0413
rfingers 7.12502
rthumb 10.2612 -64.771
lclavicle 1.97294e-014 -5.1684e-015
lhumerus -24.3975 -9.76701 84.0259
lradius 63.2705
lwrist 8.47259
lhand -25.0835 -23.283
lfingers 7.12502
lthumb 1.43093 6.69193
rfemur -50.8194 -3.54111 23.3965
rtibia 32.1195
rfoot -4.20083 1.46116
rtoes -20.2101
lfemur -3.86876 0.10747 -19.3513
ltibia 37.238
lfoot 2.29342 -18.0209
ltoes -6.51738
340
root 0.223867 15.7788 30.185 17.7143 8.09386 0.331274
lowerback -15.6528 -1.70361 0.600867
upperback -4.64339 -2.40638 1.64905
thorax 3.88386 -1.17968 0.944847
lowerneck -5.50001 -2.21762 -2.18797
upperneck 12.4412 -2.84306 0.575471
head 4.67235 -1.46178 0.374895
rclavicle -1.14425e-014 1.19271e-015
rhumerus -86.3579 -39.8933 -9.88594
rradius 9.87576
rwrist 53.9736
rhand -15.8099 -34.4965
rfingers 7.12502
rthumb 10.3835 -64.2201
lclavicle -1.14425e-014 1.19271e-015
lhumerus -25.1215 -9.3147 84.313
lradius 63.3686
lwrist 8.77572
lhand -25.0604 -23.278
lfingers 7.12502
lthumb 1.45318 6.69677
rfemur -50.7356 -2.67013 24.0353
rtibia 33.6413
rfoot -4.68916 1.84949
rtoes -16.5171
lfemur -5.4882 0.76881 -18.6077
ltibia 40.4986
lfoot 7.59234 -18.0805
ltoes -1.12859
341
root 0.23371 15.7804 30.402 17.7397 7.95336 0.0832516
lowerback -15.335 -1.53455 1.18769
upperback -4.71862 -2.26948 1.72875
thorax 3.61261 -1.11257 0.732613
lowerneck -5.83706 -2.21411 -2.25536
upperneck 12.3976 -2.8104 0.474668
head 4.71499 -1.45382 0.352977
rclavicle -2.12327e-014 1.82882e-014
rhumerus -86.1228 -40.5482 -9.68937
rradius 9.78454
rwrist 54.6594
rhand -15.9958 -33.7522
rfingers 7.12502
rthumb 10.2042 -63.4847
lclavicle -2.12327e-014 1.82882e-014
lhumerus -26.0344 -8.92153 84.626
lradius 63.4571
lwrist 9.09029
lhand -25.0389 -23.2231
lfingers 7.12502
lthumb 1.47403 6.7516
rfemur -50.6406 -2.70039 24.5422
rtibia 34.9534
rfoot -5.25117 2.82522
rtoes -12.2265
lfemur -7.12752 0.851572 -18.2519
ltibia 43.6555
lfoot 12.0376 -18.3737
ltoes -0.975519
